<svg xmlns="http://www.w3.org/2000/svg" width="34" height="26" viewBox="0 0 34 26"><g><g opacity=".5"><path fill="#fff" d="M33.792 3.647l.04.04c.09 0 .017-.017.12.04-.009.086.047.14.041.194l-.078.155.041.116-.078.078.04.116-.194.348.04.117c-.038.039-.078.077-.117.115l.041.118-.117.193.04.04-.155.308.04.04-.118.115.04.04-.155.308.04.04-.079.077.04.039-.117.115.04.04c-.04.064-.078.128-.117.193l.04.039-.078.077.04.04-.118.115.04.039c-.04.064-.078.128-.117.193l.04.04-.156.23.04.04-.118.115.04.04-.078.077.04.039-.118.115.04.04-.117.193c.014.012.027.026.04.04l-.117.114.04.04-.079.076.04.04-.117.115.04.04-.117.192.04.04-.079.076.04.04-.117.115.04.04-.117.192.04.04-.118.115.04.04-.117.192.04.04-.117.115.04.04-.156.231.04.04-.117.192.04.04-.118.115.04.039a13.46 13.46 0 0 1-.078.077l.04.04-.118.115.04.039-.117.193.04.04-.118.115.04.039-.116.193.04.04c-.04.064-.078.128-.117.193l.04.04-.078.153.04.118-.116.193.04.116-.078.077.002.156-.079.077.04.039-.078.077.04.04-.078.076.04.04-.079.076.04.04-.078.076.04.04-.079.077.04.039-.078.077.04.04-.079.076.04.04-.078.076.04.04-.117.193.04.039-.078.077.04.039-.118.115.04.04-.117.193.04.039-.118.115.04.04-.078.076.04.04-.118.115.04.04-.116.193.04.039-.118.115.04.04-.079.076.04.04-.117.115.04.04-.079.076.04.04-.195.27.04.039-.078.076.04.04-.118.115.04.04-.117.193.04.04-.118.114.04.04-.155.309.04.039-.078.077.04.04-.118.115.04.04-.117.192.04.04-.117.115.04.039-.079.077.04.04c-.04.037-.078.076-.117.115l.04.04-.079.076.04.04-.273.424.04.04-.078.076.04.04-.856 1.545c-.075-.027-.123-.047-.198-.041-.111-.19-.01-.29.074-.466-.078-.011 0-.011-.079 0a1.734 1.734 0 0 0-.04-.04l-.195.27c-.079-.011-.001-.011-.08 0l-.16-.158.311-.618-.08-.079-.233.464a.857.857 0 0 1-.275.192c-.11-.139-.09-.109-.081-.234l-.04-.04.117-.115-.041-.195.351-.502-.04-.038.235-.309a1.736 1.736 0 0 0-.04-.04l.117-.115-.04-.039.118-.116-.04-.039.118-.115-.04-.04.078-.076-.04-.04.118-.115a3.454 3.454 0 0 0-.04-.039l.273-.425-.04-.039.078-.077-.04-.039.118-.116-.04-.039.078-.077-.04-.04.118-.114-.04-.04.155-.309-.04-.04.079-.077-.04-.038.117-.116-.04-.04.117-.192a1.736 1.736 0 0 0-.04-.04l.079-.077-.04-.038.117-.116-.04-.04.117-.192-.04-.04.118-.115-.04-.04.078-.076-.04-.04.195-.27-.04-.039.079-.077c-.014-.012-.027-.026-.04-.04l.117-.114a1.734 1.734 0 0 0-.04-.04l.156-.231-.04-.04.079-.076-.04-.04.118-.115-.04-.04.078-.076-.04-.04.118-.115a1.734 1.734 0 0 1-.04-.04l.117-.192-.04-.04.117-.115-.04-.04.079-.076-.04-.04.078-.076-.04-.117.155-.31-.041-.116.078-.077-.04-.04.079-.076-.041-.118.117-.192-.041-.117.078-.078-.04-.116.078-.077-.04-.04.155-.309-.04-.04.117-.192a1.736 1.736 0 0 0-.04-.04l.118-.115-.04-.04.078-.076-.04-.04.118-.115-.04-.04.078-.076-.04-.04.118-.115a2.7 2.7 0 0 1-.04-.039l.079-.077a1.736 1.736 0 0 1-.04-.04l.117-.115-.04-.039.079-.077c-.014-.012-.027-.026-.04-.039l.117-.115a1.538 1.538 0 0 0-.04-.04c.04-.064.078-.128.117-.193a3.374 3.374 0 0 1-.04-.039l.118-.115-.04-.04.078-.076-.04-.04.118-.115-.04-.04.117-.192-.04-.04.117-.115-.04-.04.117-.192-.04-.04.079-.076-.04-.04.117-.115-.04-.04.117-.192-.04-.04.118-.115-.04-.04.078-.076-.04-.04.156-.231a1.734 1.734 0 0 1-.04-.04l.078-.154-.04-.04c-.473.455-1.044 1.005-1.531 1.267l-.353.346a1.538 1.538 0 0 1-.04-.04l-.353.347-.04-.04-.353.347-.04-.04-.314.309-.04-.04-.392.384a1.736 1.736 0 0 1-.04-.039l-.43.423c-.014-.012-.028-.026-.041-.04l-.431.424-.04-.04-1.374 1.191-.04-.04-.314.308-.04-.038-.274.269-.04-.04-.314.308c-.785.421-1.54 1.236-2.32 1.647l-1.178.92-.04-.039-.274.27-.04-.04-.275.27a3.374 3.374 0 0 1-.04-.04l-.235.23-.04-.038-.235.23-.04-.039-.235.23-.04-.038-.275.269c-.755.4-1.485 1.095-2.241 1.492l-1.926 1.418c-.547.278-1.14.754-1.692 1.032l-.432.345-.04-.04-.196.193-.04-.04-.196.193-.04-.04-.196.193-.04-.04-.157.155-.04-.04-.196.193-.04-.04-.826.575c-.866.43-1.735 1.041-2.598 1.45-.118.09-.236.18-.354.268-.417.198-.89.462-1.3.647l-.63.383-.04-.04-.078.077-.04-.04-.275.192c-.014-.012-.027-.026-.04-.039a13.46 13.46 0 0 1-.079.077l-.04-.04-.117.116-.12-.04-.472.228a6.535 6.535 0 0 0-.12-.04l-.117.116-.12-.04-.078.077-.158-.002-.078.077a1.988 1.988 0 0 0-.04-.04l-.079.077-.04-.039-.078.077-.04-.04-.079.078-.04-.04-.078.077-.158-.001-.079.077-.12-.04-.196.114-.119-.04-.197.115-.119-.04-.197.114-.119-.04c-.066.038-.131.077-.197.114l-.119-.04-.158.076-.04-.039-.078.077a1.734 1.734 0 0 0-.04-.039l-.078.077a6.535 6.535 0 0 0-.12-.04l-.196.114-.12-.04c-.129.03-.168.18-.314.23 0 0-.105-.02-.158-.002-.1-.17-.02-.183-.123-.35a.693.693 0 0 1-.236.153l-.16-.158.04-.038-.04-.04.117-.115a6.94 6.94 0 0 1-.08-.079c-.178.158-.157.107-.315.153-.085-.102-.082-.114-.12-.196l.039-.038-.04-.04.156-.154-.04-.116.157-.154-.04-.04.354-.19.04.04.235-.231.04.039.197-.115.12.04.078-.077.119.04.197-.114.119.04.078-.077.12.04.078-.077.119.04.078-.076.12.04.315-.153.119.04.197-.114.119.04.197-.114.119.04.078-.077.159.001.078-.077.04.04.078-.077.04.039.079-.077.04.04.078-.077.04.04.079-.078.04.039.078-.077.04.04.078-.077.04.039.079-.077.04.04.078-.078.04.04.197-.115.04.04.197-.115.04.04c.065-.039.131-.078.197-.115l.04.039.078-.077.04.039.117-.115.04.04.118-.116.04.039.079-.077.04.04c.144-.09.288-.18.432-.268l.04.04.157-.155.04.04.118-.116.04.04.157-.155c.63-.286 1.294-.727 1.93-1.029l.392-.307.04.04L9.46 21l.04.04c.052-.053.104-.104.157-.155l.04.04.196-.193.04.04.156-.154.04.039.197-.192c.579-.287 1.189-.738 1.77-1.032l.197-.191c.242-.124.55-.34.787-.459l.904-.651.04.039.235-.23c.355-.185.75-.506 1.102-.689l.235-.23c.48-.25.97-.704 1.456-.957l.51-.422c.85-.443 1.671-1.245 2.517-1.684l.275-.27.04.04.235-.23.04.039.274-.27c.3-.158.645-.454.944-.612l1.296-1.035c.692-.37 1.354-1.088 2.045-1.456l.392-.384.04.039.941-.846.04.04.432-.424.04.04.392-.384.04.039.313-.308.04.04.353-.347.04.04.353-.347.04.04.353-.346.04.039.589-.5.431-.422c.488-.264 1.048-.936 1.49-1.384l-.158-.08-.04.04a6.94 6.94 0 0 1-.08-.08l-.039.04-.08-.08-.118.038-.08-.078-.158-.002-.08-.078a3.362 3.362 0 0 0-.04.038l-.08-.079-.039.039-.08-.079-.118.038-.08-.078-.158-.002-.08-.079-.04.039a10.873 10.873 0 0 1-.08-.079 2.63 2.63 0 0 0-.039.039l-.08-.079-.039.039-.08-.079-.158-.002-.08-.078-.119.038-.08-.079-.158-.002-.08-.078-.04.038-.079-.078-.04.038c-.158-.08-.318-.159-.477-.237l-.118.037-.08-.079a2.678 2.678 0 0 1-.04.039l-.198-.12a3.362 3.362 0 0 1-.04.04l-.239-.159-.118.038-.914-.36-.119.039-.199-.119-.039.039a6.94 6.94 0 0 0-.08-.079l-.04.038-.08-.078-.038.038-.08-.078-.159-.002-.08-.078-.118.037-.08-.079-.04.04-.08-.08-.038.04-.08-.08-.04.04a6.94 6.94 0 0 0-.08-.08l-.039.04c-.026-.028-.053-.053-.08-.08l-.158-.001-.08-.079-.118.038-.08-.079-.159-.001-.08-.079-.039.039-.08-.08-.118.039-.2-.119-.118.038-.199-.119-.118.038-.2-.119-.118.037a24.746 24.746 0 0 1-.199-.118l-.118.038-.16-.08-.039.039-.199-.119-.118.038a6.94 6.94 0 0 0-.08-.079l-.04.039a10.873 10.873 0 0 1-.08-.079l-.118.038a14.06 14.06 0 0 1-.159-.08l-.04.04-.198-.12-.04.039-.159-.08-.118.038-.08-.079-.118.038-.16-.08-.039.04-.08-.08-.118.038-.08-.078-.118.038-.24-.158-.118.037-.12-.118-.04.04c-.066-.067-.132-.132-.199-.197l-.04.038-.12-.118-.038.038-.16-.156a1.476 1.476 0 0 0-.04.038l-.239-.158-.039.039a.724.724 0 0 1-.16-.235l.117-.116.04.04.118-.115c-.04-.014-.08-.028-.12-.04l.04-.04c-.027-.025-.054-.051-.08-.078l.077-.154.516.121.04.04.079-.077-.16-.08.04-.038-.08-.079a2.63 2.63 0 0 0 .04-.038 1.734 1.734 0 0 1-.04-.04c.29-.162.613.142.912.205l.118-.038.08.078.118-.037.16.079.039-.038.08.078.118-.038.2.12c.039-.014.078-.026.118-.039l.199.119.04-.038.158.079.119-.038.08.08c.039-.014.079-.026.118-.039l.199.119.118-.038.08.08.04-.04.08.08.118-.039.16.08c.012-.014.025-.026.038-.039l.08.079.04-.04c.026.028.053.054.08.08l.118-.038.199.119.118-.038.2.119.118-.038.318.159.119-.038.477.238.118-.038.2.12.039-.04.08.08.039-.039.08.078.158.002.08.079.119-.038.914.36.118-.039.08.079.159.001.08.08.039-.04.08.08.039-.04.08.08.039-.04.08.08.04-.039c.026.026.052.053.08.078l.038-.038.08.079.119-.038.08.078.039-.038.08.079.039-.039.12.118.118-.037.2.118.039-.038.08.078a2.63 2.63 0 0 0 .039-.039l.08.08.039-.04.08.08.04-.04.08.08.038-.04.08.08.04-.04.914.36.118-.038.08.079.04-.039.318.16.118-.038.08.078.158.002.08.078.04-.038.08.079.118-.038.08.078.118-.038.08.08.119-.038.08.078.118-.038.08.079.118-.038.08.079.04-.039.08.079.118-.038.08.079.039-.039.199.12.04-.04c.12-.003.275-.183.392-.306l.16.079c.088.002.016-.017.118.04-.046.132-.033.218-.115.348l.08.08.275-.27zm-1.49 1.306c-.187.003-.402.237-.59.421l-1.216 1.192.04.04.157-.154.04.039L32.3 4.953zm-4.83 4.108l-.04-.04a23.51 23.51 0 0 1-.156.155l.04.039.156-.154zm-.51.423l-.04-.04c-.103.034-.076.12-.078.155l.118-.115zm-1.964 1.534l-.04-.04c-.103.034-.076.12-.078.154l.118-.114zm-.315.23l-.04-.04-.157.154.04.04.157-.155zm-.353.267c-.014-.012-.027-.025-.04-.039-.103.034-.076.12-.078.155l.118-.116zm-.354.27l-.04-.04c-.103.034-.076.119-.078.154l.118-.115zm-.315.23l-.04-.04-.156.154.04.039.156-.154z"/></g></g></svg>